<?xml version="1.0" encoding="utf-8" ?><svg xmlns="http://www.w3.org/2000/svg" xmlns:xlink="http://www.w3.org/1999/xlink" width="36" height="36"><path fill="#0D5C5A" transform="matrix(1 0 0 1 18 30)" d="M13.5 -1.5L0 -1.5Q-0.6288 -1.5181 -1.0607 -1.0607Q-1.5181 -0.6288 -1.5 0Q-1.5181 0.6288 -1.0607 1.0607Q-0.6288 1.5181 0 1.5L13.5 1.5Q14.1288 1.5181 14.5607 1.0607Q15.0181 0.6288 15 0Q15.0181 -0.6288 14.5607 -1.0607Q14.1288 -1.5181 13.5 -1.5Z" fill-rule="evenodd"/><path fill="#0D5C5A" transform="matrix(1 0 0 1 4.5 4.31802)" d="M25.8107 -0.1287Q24.4393 -1.5 22.5 -1.5Q20.5607 -1.5 19.1893 -0.1287L0.4393 18.6213Q0.295 18.7653 0.1947 18.9429Q0.094 19.1203 0.0448 19.3182L-1.4552 25.3182Q-1.6253 25.9238 -1.2862 26.4537Q-0.9782 27.0022 -0.3638 27.1372Q-0.1847 27.1821 0 27.182Q0.1847 27.1821 0.3638 27.1372L6.3638 25.6372Q6.5617 25.588 6.739 25.4873Q6.9166 25.387 7.0607 25.2426L25.8107 6.4926Q27.182 5.1213 27.182 3.182Q27.182 1.2426 25.8107 -0.1287ZM21.3107 1.9926Q21.8033 1.5 22.5 1.5Q23.1967 1.5 23.6894 1.9926Q24.182 2.4853 24.182 3.182Q24.182 3.8787 23.6893 4.3713L5.2331 22.8275L2.0616 23.6204L2.8545 20.4489L21.3107 1.9926Z" fill-rule="evenodd"/></svg>